<?xml version="1.0" standalone="no"?>
<!DOCTYPE svg PUBLIC "-//W3C//DTD SVG 20010904//EN"
 "http://www.w3.org/TR/2001/REC-SVG-20010904/DTD/svg10.dtd">
<svg version="1.0" xmlns="http://www.w3.org/2000/svg"
 width="140.000000pt" height="36.000000pt" viewBox="0 0 140.000000 36.000000"
 preserveAspectRatio="xMidYMid meet">

<g transform="translate(0.000000,36.000000) scale(0.100000,-0.100000)"
fill="#fff" stroke="none">
<path d="M480 335 c-211 -67 -342 -106 -407 -121 -59 -13 -73 -20 -73 -35 0
-23 42 -35 183 -54 112 -14 224 -48 320 -96 34 -18 56 -25 49 -16 -10 12 -10
16 0 19 29 10 -43 68 -131 105 l-56 24 60 -5 c33 -3 184 -10 335 -16 250 -9
458 -24 518 -36 26 -5 30 12 5 19 -10 3 14 6 52 7 59 2 64 4 30 9 -30 4 -39
10 -37 23 2 14 -14 17 -115 22 -65 4 -179 11 -254 16 -74 6 -207 10 -295 11
-136 1 -353 13 -317 17 16 3 214 80 231 90 15 10 6 42 -12 41 -6 0 -45 -11
-86 -24z"/>
</g>
</svg>
