<?xml version="1.0" standalone="no"?>
<!DOCTYPE svg PUBLIC "-//W3C//DTD SVG 20010904//EN"
 "http://www.w3.org/TR/2001/REC-SVG-20010904/DTD/svg10.dtd">
<svg version="1.0" xmlns="http://www.w3.org/2000/svg"
 width="140.000000pt" height="36.000000pt" viewBox="0 0 140.000000 36.000000"
 preserveAspectRatio="xMidYMid meet">

<g transform="translate(0.000000,36.000000) scale(0.100000,-0.100000)"
fill="#fff" stroke="none">
<path d="M816 344 c-4 -10 -1 -21 6 -26 17 -10 215 -87 231 -90 36 -4 -181
-16 -317 -17 -88 -1 -221 -5 -295 -11 -75 -5 -189 -12 -254 -16 -101 -5 -117
-8 -115 -22 2 -13 -7 -19 -37 -23 -34 -5 -29 -7 30 -9 39 -1 62 -4 53 -7 -26
-7 -22 -24 5 -19 59 12 267 27 517 36 151 6 302 13 335 16 l60 5 -56 -24 c-88
-37 -160 -95 -131 -105 10 -3 10 -7 0 -19 -7 -9 15 -2 49 16 96 48 208 82 320
96 129 17 183 32 183 50 0 19 -4 21 -131 54 -63 16 -176 50 -252 75 -183 59
-193 61 -201 40z"/>
</g>
</svg>
